<?xml version="1.0" encoding="UTF-8" standalone="no"?>
<svg
   width="24"
   height="24"
   viewBox="0 0 24 24"
   fill="none"
   version="1.1"
   id="svg1"
   sodipodi:docname="icon_social_github.svg"
   inkscape:version="1.3 (0e150ed6c4, 2023-07-21)"
   xmlns:inkscape="http://www.inkscape.org/namespaces/inkscape"
   xmlns:sodipodi="http://sodipodi.sourceforge.net/DTD/sodipodi-0.dtd"
   xmlns="http://www.w3.org/2000/svg"
   xmlns:svg="http://www.w3.org/2000/svg">
  <defs
     id="defs1" />
  <sodipodi:namedview
     id="namedview1"
     pagecolor="#ffffff"
     bordercolor="#000000"
     borderopacity="0.25"
     inkscape:showpageshadow="2"
     inkscape:pageopacity="0.0"
     inkscape:pagecheckerboard="0"
     inkscape:deskcolor="#d1d1d1"
     inkscape:zoom="12.271249"
     inkscape:cx="-7.8231645"
     inkscape:cy="16.827953"
     inkscape:window-width="1920"
     inkscape:window-height="1009"
     inkscape:window-x="-8"
     inkscape:window-y="1072"
     inkscape:window-maximized="1"
     inkscape:current-layer="svg1" />
  <path
     id="rect1"
     d="m 12,2.246699 c 5.525,0 10,4.4749998 10,9.999999 a 10.01625,10.01625 0 0 1 -6.8125,9.4875 c -0.5,0.1 -0.6875,-0.2125 -0.6875,-0.475 0,-0.3375 0.01249,-1.412499 0.01249,-2.749999 0,-0.937501 -0.3125,-1.5375 -0.674999,-1.85 2.224999,-0.250001 4.5625,-1.1 4.5625,-4.9375 0,-1.1 -0.387501,-1.9875004 -1.025001,-2.6875002 0.1,-0.2500001 0.45,-1.2750001 -0.1,-2.65 0,0 -0.8375,-0.2749999 -2.749999,1.0249999 -0.800001,-0.2249999 -1.65,-0.3374999 -2.5,-0.3374999 -0.850001,0 -1.700001,0.1125 -2.5000004,0.3374999 C 7.6125008,6.1216988 6.7750008,6.3841988 6.7750008,6.3841988 c -0.55,1.3749999 -0.2,2.3999999 -0.1,2.65 -0.6374999,0.6999998 -1.0249999,1.5999992 -1.0249999,2.6875002 0,3.824999 2.3249999,4.687499 4.5499991,4.9375 -0.2874997,0.249999 -0.5499993,0.6875 -0.6374993,1.3375 -0.575,0.262499 -2.0124999,0.6875 -2.9124999,-0.825 -0.1875,-0.300001 -0.7499999,-1.037501 -1.5374999,-1.025 -0.8375,0.0125 -0.3375,0.475 0.0125,0.662499 0.425,0.2375 0.9125,1.125 1.0249999,1.4125 0.2000001,0.562501 0.85,1.6375 3.3624999,1.175 0,0.8375 0.0125,1.625 0.0125,1.8625 0,0.2625 -0.1874999,0.5625 -0.6874999,0.475 a 9.9937495,9.9937495 0 0 1 -6.8374997,-9.4875 C 2.0000011,6.7216988 6.4750008,2.246699 12,2.246699 Z"
     style="fill:#ffffff;stroke-width:1" />
</svg>
