<svg width="24" height="24" viewBox="0 0 24 24" fill="none" xmlns="http://www.w3.org/2000/svg">
<path fill-rule="evenodd" clip-rule="evenodd" d="M2 5V18.088H7.96291C8.51402 18.088 9.05226 18.0142 9.57048 17.8677C10.0947 17.7211 10.5628 17.496 10.9701 17.189C11.3744 16.8847 11.7023 16.4903 11.9432 16.0037C12.1818 15.5233 12.3012 14.9519 12.3013 14.2882C12.3013 13.4694 12.1184 12.7711 11.7448 12.1874C11.373 11.6077 10.8124 11.1999 10.0551 10.9684C10.6112 10.6886 11.0272 10.3282 11.3105 9.88905C11.5915 9.44911 11.732 8.8988 11.732 8.23993C11.732 7.63085 11.638 7.11563 11.4505 6.70427C11.2585 6.28662 10.9902 5.95518 10.6476 5.70593C10.2995 5.45675 9.88762 5.27501 9.40495 5.16605C8.91956 5.05413 8.38856 5 7.80006 5H2ZM15.0563 5.87798V7.16949H20.0429V5.87798H15.0563ZM4.70875 7.22951H7.24294C7.4825 7.22951 7.71652 7.24764 7.93956 7.29404C8.16674 7.33552 8.36248 7.41249 8.53582 7.52388C8.71055 7.63087 8.84877 7.78369 8.95321 7.97904C9.0541 8.17432 9.10428 8.42601 9.10428 8.73059C9.10428 9.27901 8.95324 9.67891 8.64168 9.92087C8.32695 10.1667 7.92959 10.2878 7.44959 10.2878H4.70875V7.22951ZM17.663 8.34341C16.9804 8.34341 16.3641 8.47246 15.8053 8.72901C15.2464 8.98644 14.7665 9.33904 14.3619 9.7858C13.9582 10.2301 13.6511 10.7599 13.4289 11.3738C13.2113 11.9856 13.1001 12.6476 13.1001 13.3562C13.1001 14.0891 13.2073 14.7654 13.4199 15.3762C13.6348 15.9904 13.9363 16.5132 14.3245 16.9555C14.7227 17.3958 15.1963 17.7334 15.7629 17.9744C16.3299 18.2125 16.9613 18.3333 17.663 18.3333C18.6697 18.3333 19.5338 18.088 20.2422 17.5957C20.9589 17.1054 21.4845 16.291 21.8307 15.1503H19.6761C19.5926 15.4436 19.3768 15.7261 19.0223 15.9904C18.6647 16.2549 18.2381 16.3876 17.7446 16.3876C17.0585 16.3876 16.5288 16.1962 16.1625 15.8155C15.7948 15.4348 15.5567 14.7254 15.5567 13.9763H21.9844C22.0305 13.241 21.9744 12.5388 21.8142 11.8665C21.6527 11.1931 21.3946 10.5928 21.0314 10.0679C20.6683 9.542 20.2062 9.12191 19.6424 8.812C19.0767 8.4977 18.4165 8.34341 17.663 8.34341ZM17.5895 10.3089C18.1903 10.3089 18.683 10.494 18.9737 10.8364C19.2656 11.1815 19.4791 11.6721 19.5375 12.3359H15.5567C15.5682 12.1509 15.6056 11.9417 15.6685 11.7112C15.731 11.4746 15.8386 11.2533 15.9965 11.0436C16.1552 10.8373 16.3628 10.6622 16.616 10.5214C16.8751 10.3788 17.1985 10.3089 17.5895 10.3089ZM4.70889 12.2548H7.65364C8.23668 12.2548 8.71062 12.3975 9.06599 12.6843C9.42091 12.9753 9.59926 13.4541 9.59926 14.1288C9.59926 14.4728 9.54678 14.7578 9.43732 14.9771C9.32825 15.1984 9.17822 15.3724 8.99708 15.4993C8.81594 15.6313 8.60108 15.7206 8.35886 15.7769C8.12026 15.8337 7.86669 15.8589 7.59933 15.8589H4.70889V12.2548Z" fill="white"/>
</svg>
