<svg width="24" height="24" viewBox="0 0 24 24" fill="none" xmlns="http://www.w3.org/2000/svg">
<path d="M9.00089 11.9998C9.00094 11.4064 9.17695 10.8264 9.50667 10.333C9.83638 9.83968 10.305 9.45519 10.8532 9.22817C11.4015 9.00115 12.0048 8.9418 12.5867 9.05763C13.1687 9.17346 13.7033 9.45925 14.1228 9.87888C14.5424 10.2985 14.828 10.8331 14.9437 11.4151C15.0594 11.9971 14.9999 12.6003 14.7728 13.1485C14.5456 13.6966 14.161 14.1651 13.6675 14.4947C13.1741 14.8243 12.594 15.0002 12.0006 15.0001C11.2049 15 10.4419 14.6838 9.87937 14.1211C9.31682 13.5585 9.00083 12.7954 9.00089 11.9998ZM7.37892 11.9998C7.37892 14.5522 9.44809 16.6213 12.0006 16.6213C14.5531 16.6213 16.6223 14.5522 16.6223 11.9998C16.6223 9.44735 14.5531 7.37826 12.0006 7.37826C9.44809 7.37826 7.37965 9.44711 7.37965 11.9998M15.7252 7.19492C15.725 7.40857 15.7882 7.61748 15.9067 7.79523C16.0253 7.97297 16.1939 8.11157 16.3912 8.19348C16.5886 8.2754 16.8058 8.29696 17.0154 8.25543C17.2249 8.2139 17.4175 8.11115 17.5687 7.96018C17.7199 7.80921 17.8229 7.61679 17.8647 7.40727C17.9065 7.19775 17.8852 6.98054 17.8036 6.7831C17.7219 6.58567 17.5836 6.41689 17.406 6.2981C17.2284 6.17931 17.0195 6.11585 16.8059 6.11576C16.5195 6.11589 16.2449 6.22966 16.0424 6.43209C15.8399 6.63452 15.726 6.90906 15.7257 7.19541M8.36428 19.3257C7.48684 19.2859 7.00981 19.1397 6.69284 19.0163C6.27255 18.8526 5.97304 18.6578 5.65777 18.3431C5.34249 18.0283 5.14848 17.7288 4.98453 17.3085C4.86109 16.9916 4.71485 16.5146 4.67484 15.6372C4.63118 14.6885 4.62269 14.4033 4.62269 11.9995C4.62269 9.59576 4.63191 9.31203 4.67484 8.36188C4.71485 7.48448 4.86206 7.00819 4.98453 6.6905C5.14848 6.27096 5.34249 5.97025 5.65777 5.65499C5.97304 5.33973 6.27207 5.14572 6.69308 4.98178C7.00981 4.85835 7.48709 4.71211 8.36452 4.67234C9.31325 4.62869 9.59821 4.61996 12.0008 4.61996C14.4035 4.61996 14.6887 4.62918 15.6386 4.67234C16.5163 4.71236 16.9924 4.85956 17.3101 4.98203C17.7304 5.14475 18.0301 5.34046 18.3454 5.65523C18.6607 5.97001 18.8547 6.27024 19.0186 6.6905C19.1423 7.00722 19.2883 7.48424 19.3283 8.36188C19.372 9.3113 19.3807 9.59552 19.3807 11.9995C19.3807 14.4035 19.372 14.6872 19.3283 15.6372C19.2883 16.5148 19.1413 16.9916 19.0186 17.3085C18.8552 17.7288 18.6602 18.0285 18.3454 18.3431C18.0306 18.6576 17.7304 18.8523 17.3101 19.0163C16.9933 19.14 16.5163 19.2862 15.6386 19.326C14.6899 19.3696 14.4049 19.3783 12.0008 19.3783C9.59676 19.3783 9.31277 19.3694 8.36428 19.3257ZM8.29007 3.05359C7.33115 3.09749 6.67634 3.24954 6.10497 3.47241C5.50449 3.69869 4.96046 4.05295 4.51065 4.51059C4.00961 5.01064 3.70234 5.51239 3.47243 6.10485C3.25004 6.67717 3.09798 7.33146 3.05432 8.28961C3.01067 9.24776 3 9.55599 3 12C3 14.444 3.01019 14.751 3.05432 15.7104C3.09846 16.6698 3.25004 17.3228 3.47243 17.8949C3.70234 18.4869 4.00985 18.9894 4.51065 19.4894C5.01145 19.9895 5.5125 20.297 6.10497 20.5276C6.67804 20.75 7.33163 20.9018 8.28982 20.9454C9.24802 20.9891 9.55626 21 12.0004 21C14.4445 21 14.7515 20.9898 15.7109 20.9454C16.6703 20.9011 17.3234 20.75 17.8955 20.5276C18.4875 20.297 18.989 19.9895 19.4901 19.4894C19.9911 18.9894 20.2977 18.4869 20.5283 17.8949C20.7507 17.3228 20.9032 16.6685 20.9462 15.7104C20.9891 14.7522 21 14.444 21 12C21 9.55599 20.9898 9.24898 20.9462 8.28961C20.9025 7.33024 20.7507 6.67668 20.5283 6.10485C20.2977 5.51312 19.9902 5.01161 19.4901 4.51059C18.99 4.00957 18.487 3.70182 17.8967 3.47241C17.3239 3.25003 16.6696 3.09725 15.7121 3.05432C14.7547 3.0114 14.4457 3 12.0016 3C9.55747 3 9.25044 3.00994 8.29104 3.05432" fill="white"/>
</svg>
