<svg width="24" height="24" viewBox="0 0 24 24" fill="none" xmlns="http://www.w3.org/2000/svg">
<path d="M6.92434 5C5.86146 5 5 5.85578 5 6.91164C5 7.9675 5.86146 8.82328 6.92434 8.82328C7.98726 8.82328 8.84868 7.9675 8.84868 6.91164C8.84868 5.85578 7.98721 5 6.92434 5ZM15.5391 9.47687C13.9672 9.47687 13.2288 10.0487 12.7321 10.7893V10.0533C12.7321 9.81323 12.5365 9.61892 12.2948 9.61892H10.1922C9.95054 9.61892 9.75435 9.81323 9.75435 10.0533V18.5656C9.75435 18.8057 9.95054 19 10.1922 19H12.2948C12.5365 19 12.7321 18.8057 12.7321 18.5656V14.0017C12.7866 13.3884 13.0583 12.0216 14.3981 12.0216C16.1252 12.0216 15.9511 14.0182 15.9511 14.6085V18.5656C15.9511 18.8057 16.1467 19 16.3883 19H18.5622C18.8038 19 19 18.8057 19 18.5656V14.4828C19 12.7078 19.02 9.47687 15.5391 9.47687ZM5.91156 9.61892C5.64872 9.61892 5.43548 9.83017 5.43548 10.0913V18.5276C5.43548 18.7888 5.64872 19 5.91156 19H7.93712C8.19996 19 8.4132 18.7888 8.4132 18.5276V10.0913C8.4132 9.83017 8.19996 9.61892 7.93712 9.61892H5.91156Z" fill="white"/>
</svg>
