<?xml version="1.0" encoding="UTF-8" standalone="no"?>
<svg
   width="1200"
   height="240"
   viewBox="0 0 1200 240"
   fill="none"
   version="1.1"
   id="svg4"
   sodipodi:docname="logo_woodencio.svg"
   inkscape:version="1.3 (0e150ed6c4, 2023-07-21)"
   xmlns:inkscape="http://www.inkscape.org/namespaces/inkscape"
   xmlns:sodipodi="http://sodipodi.sourceforge.net/DTD/sodipodi-0.dtd"
   xmlns="http://www.w3.org/2000/svg"
   xmlns:svg="http://www.w3.org/2000/svg">
  <defs
     id="defs4" />
  <sodipodi:namedview
     id="namedview4"
     pagecolor="#ffffff"
     bordercolor="#000000"
     borderopacity="0.25"
     inkscape:showpageshadow="false"
     inkscape:pageopacity="0.0"
     inkscape:pagecheckerboard="0"
     inkscape:deskcolor="#d1d1d1"
     inkscape:zoom="0.43385416"
     inkscape:cx="757.16687"
     inkscape:cy="134.83794"
     inkscape:window-width="1920"
     inkscape:window-height="1009"
     inkscape:window-x="-8"
     inkscape:window-y="1072"
     inkscape:window-maximized="1"
     inkscape:current-layer="g20"
     showgrid="false">
    <inkscape:grid
       id="grid20"
       units="px"
       originx="0"
       originy="0"
       spacingx="1"
       spacingy="1"
       empcolor="#0099e5"
       empopacity="0.30196078"
       color="#0099e5"
       opacity="0.14901961"
       empspacing="10"
       dotted="false"
       gridanglex="30"
       gridanglez="30"
       visible="false" />
  </sodipodi:namedview>
  <g
     id="g20"
     transform="translate(-30)">
    <g
       id="g21"
       transform="translate(25.000006)">
      <path
         d="M 210,190 110,240 30,200 V 50 L 130,0 210,40 Z"
         fill="#815413"
         id="path1" />
      <path
         d="M 30,50 130,0 210,40 110,90 Z"
         fill="#f19f24"
         id="path2" />
      <path
         d="M 110,240 V 90 L 210,40 v 150 z"
         fill="#f5b75b"
         id="path3" />
      <path
         fill-rule="evenodd"
         clip-rule="evenodd"
         d="m 220,100 -50,25 v 10 l -20,10 v -10 l -50,25 v 10 L 40,140 v 10 l 60,30 v 30 l 50,-25 v -30 l 20,-10 v 30 l 50,-25 z m -10,15 v 30 l -30,15 v -30 z m -70,35 v 30 l -30,15 v -30 z"
         fill="#120802"
         id="path4" />
    </g>
    <path
       id="path9"
       style="font-weight:500;font-stretch:semi-condensed;font-size:120px;line-height:1.5;font-family:'Barlow Semi Condensed';-inkscape-font-specification:'Barlow Semi Condensed,  Medium Semi-Condensed';opacity:1;fill:#f19f24;stroke-width:10;paint-order:markers fill stroke"
       d="m 425.47996,190 q -1.08,0 -1.32,-1.08 l -19.08,-81.6 -0.12,-0.48 q 0,-0.84 1.08,-0.84 h 9.6 q 1.2,0 1.32,1.08 l 12.84,58.08 q 0.12,0.36 0.24,0.36 0.12,0 0.24,-0.36 l 11.64,-58.08 q 0.24,-1.08 1.32,-1.08 h 8.76 q 1.2,0 1.32,1.08 l 12.48,58.08 q 0.12,0.36 0.24,0.36 0.12,0 0.24,-0.36 l 12.24,-58.08 q 0.24,-1.08 1.32,-1.08 h 9.24 q 0.6,0 0.84,0.36 0.36,0.36 0.24,0.96 l -18.36,81.6 q -0.12,1.08 -1.32,1.08 h -9 q -1.08,0 -1.32,-1.08 l -12.36,-59.4 q -0.12,-0.36 -0.24,-0.36 -0.12,0 -0.24,0.36 l -11.88,59.4 q -0.12,1.08 -1.32,1.08 z m 97.92001,1.08 q -7.68,0 -13.56,-3.12 -5.76,-3.24 -9,-9 -3.24,-5.76 -3.24,-13.32 v -35.28 q 0,-7.44 3.24,-13.2 3.24,-5.76 9,-8.88 5.88,-3.24 13.56,-3.24 7.68,0 13.56,3.24 5.88,3.12 9.12,8.88 3.24,5.76 3.24,13.2 v 35.28 q 0,7.56 -3.24,13.32 -3.24,5.76 -9.12,9 -5.88,3.12 -13.56,3.12 z m 0,-10.08 q 6.48,0 10.44,-4.08 3.96,-4.08 3.96,-10.8 v -36 q 0,-6.72 -3.96,-10.92 -3.96,-4.2 -10.44,-4.2 -6.36,0 -10.32,4.2 -3.96,4.2 -3.96,10.92 v 36 q 0,6.6 3.96,10.8 3.96,4.08 10.32,4.08 z m 65.03996,10.08 q -7.68,0 -13.56,-3.12 -5.76,-3.24 -9,-9 -3.24,-5.76 -3.24,-13.32 v -35.28 q 0,-7.44 3.24,-13.2 3.24,-5.76 9,-8.88 5.88,-3.24 13.56,-3.24 7.68,0 13.56,3.24 5.88,3.12 9.12,8.88 3.24,5.76 3.24,13.2 v 35.28 q 0,7.56 -3.24,13.32 -3.24,5.76 -9.12,9 -5.88,3.12 -13.56,3.12 z m 0,-10.08 q 6.48,0 10.44,-4.08 3.96,-4.08 3.96,-10.8 v -36 q 0,-6.72 -3.96,-10.92 -3.96,-4.2 -10.44,-4.2 -6.36,0 -10.32,4.2 -3.96,4.2 -3.96,10.92 v 36 q 0,6.6 3.96,10.8 3.96,4.08 10.32,4.08 z m 42.47998,9 q -1.2,0 -1.2,-1.2 v -81.6 q 0,-1.2 1.2,-1.2 h 24.36 q 11.16,0 17.76,6.36 6.72,6.36 6.72,16.92 v 37.44 q 0,10.56 -6.72,16.92 -6.6,6.36 -17.76,6.36 z m 10.32,-10.44 q 0,0.48 0.48,0.48 l 13.8,-0.12 q 5.76,0 9.12,-3.84 3.48,-3.96 3.6,-10.56 v -35.04 q 0,-6.72 -3.48,-10.56 -3.48,-3.96 -9.36,-3.96 h -13.68 q -0.48,0 -0.48,0.48 z m 101.40004,-64.8 q 0,1.2 -1.2,1.2 h -34.8 q -0.48,0 -0.48,0.48 v 25.92 q 0,0.48 0.48,0.48 h 22.92 q 1.2,0 1.2,1.2 v 7.56 q 0,1.2 -1.2,1.2 h -22.92 q -0.48,0 -0.48,0.48 v 26.28 q 0,0.48 0.48,0.48 h 34.8 q 1.2,0 1.2,1.2 v 7.56 q 0,1.2 -1.2,1.2 h -45.6 q -1.2,0 -1.2,-1.2 v -81.6 q 0,-1.2 1.2,-1.2 h 45.6 q 1.2,0 1.2,1.2 z m 55.43993,-7.56 q 0,-1.2 1.2,-1.2 h 9.12 q 1.2,0 1.2,1.2 v 81.6 q 0,1.2 -1.2,1.2 h -9.6 q -1.08,0 -1.44,-0.84 l -28.92,-58.2 q -0.24,-0.24 -0.48,-0.24 -0.12,0 -0.12,0.36 l 0.12,57.72 q 0,1.2 -1.2,1.2 h -9.12 q -1.2,0 -1.2,-1.2 v -81.6 q 0,-1.2 1.2,-1.2 h 9.6 q 1.08,0 1.44,0.84 l 28.8,58.2 q 0.24,0.24 0.36,0.24 0.24,0 0.24,-0.36 z m 52.32,83.76 q -7.56,0 -13.44,-3 -5.76,-3.12 -9,-8.64 -3.12,-5.64 -3.12,-12.96 v -36.84 q 0,-11.16 6.96,-17.76 7.08,-6.72 18.6,-6.72 11.52,0 18.47995,6.6 6.96,6.6 6.96,17.52 v 0.96 q 0,0.6 -0.36,0.96 -0.36,0.36 -0.84,0.36 l -9.11995,0.48 q -1.2,0 -1.2,-1.2 v -1.8 q 0,-6.24 -3.84,-10.08 -3.84,-3.84 -10.08,-3.84 -6.24,0 -10.2,3.84 -3.84,3.84 -3.84,10.08 v 38.16 q 0,6.24 3.84,10.08 3.96,3.84 10.2,3.84 6.24,0 10.08,-3.84 3.84,-3.84 3.84,-10.08 v -1.68 q 0,-1.2 1.2,-1.2 l 9.11995,0.48 q 1.2,0 1.2,1.2 v 0.84 q 0,7.2 -3.24,12.72 -3.12,5.52 -8.87995,8.52 -5.76,3 -13.32,3 z M 891.67993,190 q -1.2,0 -1.2,-1.2 v -81.6 q 0,-1.2 1.2,-1.2 h 9.12 q 1.2,0 1.2,1.2 v 81.6 q 0,1.2 -1.2,1.2 z m 51.36,1.08 q -7.68,0 -13.56,-3.12 -5.76,-3.24 -9,-9 -3.24,-5.76 -3.24,-13.32 v -35.28 q 0,-7.44 3.24,-13.2 3.24,-5.76 9,-8.88 5.88,-3.24 13.56,-3.24 7.68,0 13.56,3.24 5.88,3.12 9.12,8.88 3.24,5.76 3.24,13.2 v 35.28 q 0,7.56 -3.24,13.32 -3.24,5.76 -9.12,9 -5.88,3.12 -13.56,3.12 z m 0,-10.08 q 6.48,0 10.44,-4.08 3.96,-4.08 3.96,-10.8 v -36 q 0,-6.72 -3.96,-10.92 -3.96,-4.2 -10.44,-4.2 -6.36,0 -10.32,4.2 -3.96,4.2 -3.96,10.92 v 36 q 0,6.6 3.96,10.8 3.96,4.08 10.32,4.08 z" />
    <path
       id="text1"
       style="font-weight:500;font-stretch:semi-condensed;font-size:120px;line-height:1.5;font-family:'Barlow Semi Condensed';-inkscape-font-specification:'Barlow Semi Condensed,  Medium Semi-Condensed';opacity:0.5;fill:#f19f24;stroke-width:10;paint-order:markers fill stroke"
       d="m 291.2,190 q -1.2,0 -1.2,-1.2 v -81.6 q 0,-1.2 1.2,-1.2 h 9.12 q 1.2,0 1.2,1.2 v 81.6 q 0,1.2 -1.2,1.2 z m 23.99997,-58.32 q -1.2,0 -1.2,-1.2 l -1.08,-23.04 q 0,-1.2 1.08,-1.2 h 9.36 q 1.08,0 1.08,1.2 l -1.2,23.04 q 0,1.2 -1.2,1.2 z m 66.36009,-24.84 q 0.6,-0.84 1.44,-0.84 h 9.12 q 1.2,0 1.2,1.2 v 81.6 q 0,1.2 -1.2,1.2 h -9.12 q -1.2,0 -1.2,-1.2 v -60.48 q 0,-0.36 -0.24,-0.36 -0.24,-0.12 -0.36,0.24 l -14.28,23.64 q -0.6,0.84 -1.44,0.84 h -1.92 q -0.84,0 -1.44,-0.84 l -14.4,-23.4 q -0.12,-0.36 -0.36,-0.24 -0.24,0 -0.24,0.36 v 60.24 q 0,1.2 -1.2,1.2 h -9.12 q -1.2,0 -1.2,-1.2 v -81.6 q 0,-1.2 1.2,-1.2 h 9.12 q 0.84,0 1.44,0.84 l 16.8,27.12 q 0.12,0.12 0.36,0.12 0.24,0 0.36,-0.12 z" />
  </g>
</svg>
