<?xml version="1.0" encoding="UTF-8" standalone="no"?>
<svg
   width="240"
   height="240"
   viewBox="0 0 240 240"
   fill="none"
   version="1.1"
   id="svg4"
   sodipodi:docname="Logo_icon_woodencio.svg"
   inkscape:version="1.3 (0e150ed6c4, 2023-07-21)"
   xmlns:inkscape="http://www.inkscape.org/namespaces/inkscape"
   xmlns:sodipodi="http://sodipodi.sourceforge.net/DTD/sodipodi-0.dtd"
   xmlns="http://www.w3.org/2000/svg"
   xmlns:svg="http://www.w3.org/2000/svg">
  <defs
     id="defs4" />
  <sodipodi:namedview
     id="namedview4"
     pagecolor="#ffffff"
     bordercolor="#000000"
     borderopacity="0.25"
     inkscape:showpageshadow="false"
     inkscape:pageopacity="0.0"
     inkscape:pagecheckerboard="0"
     inkscape:deskcolor="#d1d1d1"
     inkscape:zoom="2.4542498"
     inkscape:cx="103.69768"
     inkscape:cy="113.06917"
     inkscape:window-width="1920"
     inkscape:window-height="1009"
     inkscape:window-x="-8"
     inkscape:window-y="1072"
     inkscape:window-maximized="1"
     inkscape:current-layer="g6"
     showgrid="true">
    <inkscape:grid
       id="grid20"
       units="px"
       originx="0"
       originy="0"
       spacingx="1"
       spacingy="1"
       empcolor="#0099e5"
       empopacity="0.30196078"
       color="#0099e5"
       opacity="0.14901961"
       empspacing="10"
       dotted="false"
       gridanglex="30"
       gridanglez="30"
       visible="true" />
  </sodipodi:namedview>
  <g
     id="g20"
     transform="translate(-30)">
    <g
       id="g6"
       transform="matrix(0.95549129,0,0,0.95549129,6.6763068,5.341047)"
       style="stroke-width:1.04658">
      <g
         id="g21"
         transform="matrix(1.046582,0,0,1.046582,19.177254,-5.58984)">
        <path
           d="M 210,190 110,240 30,200 V 50 L 130,0 210,40 Z"
           fill="#815413"
           id="path1" />
        <path
           d="M 30,50 130,0 210,40 110,90 Z"
           fill="#f19f24"
           id="path2" />
        <path
           d="M 110,240 V 90 L 210,40 v 150 z"
           fill="#f5b75b"
           id="path3" />
        <path
           fill-rule="evenodd"
           clip-rule="evenodd"
           d="m 220,100 -50,25 v 10 l -20,10 v -10 l -50,25 v 10 L 40,140 v 10 l 60,30 v 30 l 50,-25 v -30 l 20,-10 v 30 l 50,-25 z m -10,15 v 30 l -30,15 v -30 z m -70,35 v 30 l -30,15 v -30 z"
           fill="#120802"
           id="path4" />
      </g>
    </g>
  </g>
</svg>
